<?xml version="1.0" encoding="utf-8"?>
<!-- Generator: Adobe Illustrator 19.2.1, SVG Export Plug-In . SVG Version: 6.00 Build 0)  -->
<svg version="1.1" id="Layer_1" xmlns="http://www.w3.org/2000/svg" xmlns:xlink="http://www.w3.org/1999/xlink" x="0px" y="0px"
	 viewBox="0 0 320.2 152" style="enable-background:new 0 0 320.2 152;" xml:space="preserve">
<style type="text/css">
	.st0{clip-path:url(#SVGID_2_);fill:#355847;}
</style>
<g id="Artwork_11">
	<g>
		<defs>
			<rect id="SVGID_1_" y="0" width="320.2" height="152"/>
		</defs>
		<clipPath id="SVGID_2_">
			<use xlink:href="#SVGID_1_"  style="overflow:visible;"/>
		</clipPath>
		<polygon class="st0" points="9.2,0 0,31.6 9.6,31.6 12.4,34.6 12.4,142.2 9.2,152 41,152 38,142.2 38,0 		"/>
		<path class="st0" d="M84.8,123.8V91l2.8-3h19.6l2.8,3v32.8l-2.8,2.8H87.6L84.8,123.8z M84.8,59.6V28.4l2.8-2.8h19.6l2.8,2.8v31.2
			l-2.8,3H87.6L84.8,59.6z M72.2,0l-13,12.8v49.8l12.4,12.6L59.2,87.8v51.4l13,12.8H123l12.4-12.8V87.8L123,75.2l12.4-12.6V12.8
			L123,0H72.2z"/>
		<polygon class="st0" points="165,0 152.6,12.8 152.6,38.4 149.4,48 180.8,48 177.6,38.4 177.6,28.4 180.6,25.6 200,25.6 203,28.4 
			203,60.4 200,63.4 197.8,63.3 187.6,60.1 187.6,91.9 197.8,88.7 200,88.8 203,91.8 203,123.4 200,126.4 180.6,126.4 177.6,123.4 
			177.6,113.6 180.8,104 149.4,104 152.6,113.6 152.6,139.2 165,152 215.8,152 228.6,139.2 228.6,88.8 215.8,76 228.6,63.4 
			228.6,12.8 215.8,0 		"/>
		<polygon class="st0" points="247.4,0 242.6,28.4 253.2,25.6 293.8,25.6 248.2,139.8 241,152 276.2,152 273.4,143 320.2,25.6 
			316.8,0 		"/>
	</g>
</g>
</svg>
