<?xml version="1.0" encoding="utf-8"?>
<!-- Generator: Adobe Illustrator 19.2.1, SVG Export Plug-In . SVG Version: 6.00 Build 0)  -->
<svg version="1.1" id="Layer_1" xmlns="http://www.w3.org/2000/svg" xmlns:xlink="http://www.w3.org/1999/xlink" x="0px" y="0px"
	 viewBox="0 0 1238 254.6" style="enable-background:new 0 0 1238 254.6;" xml:space="preserve">
<style type="text/css">
	.st0{fill:#EEEEEE;}
	.st1{fill:#424242;}
	.st2{display:none;}
	.st3{display:inline;fill:#E0E0E0;}
</style>
<path class="st0" d="M1220,43H18C8.1,43,0,51,0,61v101.9c0,9.9,8.1,18,18,18h471.8c11,0,19.4,9.8,17.7,20.6
	c-0.1,0.4-0.1,0.7-0.2,1.1c-0.9,6.5-4.3,18.1-7.6,28.7c-3.6,11.6,5,23.3,17.2,23.3l150.3,0c5.9,0,11.5-2.8,14.9-7.6
	c2.9-4.2,22.8-42,24.3-51.3c1.5-9.4,8.3-14.8,16.8-14.8H1220c9.9,0,18-8.1,18-18V61C1238,51,1229.9,43,1220,43z"/>
<g>
	<g>
		<path class="st1" d="M68.8,85.6c0-3-1.5-4.5-4.5-4.5H41.8c-3,0-4.5,1.5-4.5,4.5V138c0,3,1.5,4.5,4.5,4.5h22.4c3,0,4.5-1.5,4.5-4.5
			v-14.2h-18v-17.2h37.4v35.2c0,11.2-7.5,19.5-19.5,19.5H37.4c-12,0-19.5-8.2-19.5-19.5V81.9c0-11.2,7.5-19.5,19.5-19.5h32.2
			c11.2,0,19.5,7.5,19.5,19.5v12.7H68.8V85.6z"/>
		<path class="st1" d="M168.3,160.4l-15.7-35.9h-15.7v35.9h-19.5V63.1h49.4c11.2,0,19.5,7.5,19.5,19.5v22.4c0,9-5.2,15.7-13.5,18
			l16.5,36.7h-21C168.3,159.7,168.3,160.4,168.3,160.4z M166.8,86.3c0-3-1.5-4.5-4.5-4.5h-25.4v24.7h25.4c3,0,4.5-1.5,4.5-4.5V86.3z
			"/>
		<path class="st1" d="M279.1,63.1v18.7h-44.1v20.2h35.9v18h-35.9v22.4h44.1v18h-63.6V63.1H279.1z"/>
		<path class="st1" d="M318.7,160.4h-20.2l31.4-97.3h22.4l31.4,97.3h-21l-6-21.7h-31.4L318.7,160.4z M330.7,120h21l-10.5-35.9
			L330.7,120z"/>
		<path class="st1" d="M436.2,81.1v79.3h-19.5V81.1h-25.4v-18h70.3v18H436.2z"/>
	</g>
	<g>
		<path class="st1" d="M793.9,63.1v78.6h40.4v18h-59.9V62.4h19.5V63.1z"/>
		<path class="st1" d="M871.7,160.4h-20.2l31.4-97.3h22.4l31.4,97.3h-21l-6-21.7h-31.4L871.7,160.4z M882.9,120h21l-10.5-35.9
			L882.9,120z"/>
		<path class="st1" d="M979.4,135.7v24.7H960V63.1h19.5v45.6l33.7-45.6h22.4l-29.9,38.2l31.4,59.1h-21.7l-22.4-41.9L979.4,135.7z"/>
		<path class="st1" d="M1123.9,63.1v18.7h-44.1v20.2h35.9v18h-35.9v22.4h44.1v18h-63.6V63.1H1123.9z"/>
		<path class="st1" d="M1195.7,85.6c0-3-1.5-4.5-4.5-4.5h-19.5c-3,0-4.5,1.5-4.5,4.5v9c0,3,1.5,3.7,4.5,4.5l24.7,5.2
			c10.5,2.2,19.5,9,19.5,19.5v18c0,11.2-7.5,19.5-19.5,19.5h-29.9c-11.2,0-19.5-7.5-19.5-19.5V129h18.7v9c0,3,1.5,4.5,4.5,4.5h21
			c3,0,4.5-1.5,4.5-4.5v-10.5c0-3-1.5-3.7-4.5-4.5l-24.7-5.2c-10.5-2.2-19.5-9-19.5-19.5V81.9c0-11.2,7.5-19.5,19.5-19.5h28.4
			c11.2,0,19.5,7.5,19.5,19.5v11.2h-18.7V85.6z"/>
	</g>
	<g id="mitten_1_">
		<path class="st1" d="M529,224c0-3,0.7-5.2,2.2-7.5c6.7-8.2,7.5-18,9-27.7c2.2-12.7,0.7-24.7-5.2-35.9c-3-6.7-5.2-14.2-9-20.2
			c-2.2-3-2.2-6,0-9c3.7-4.5,3-9.7,0.7-14.2c-2.2-3.7-1.5-6.7,0.7-10.5c5.2-8.2,9-18,6.7-28.4c-0.7-3,0.7-6,2.2-6.7
			c4.5-1.5,3.7-4.5,3.7-7.5c0-2.2,0-4.5,3-2.2c0.7,0,1.5,0.7,1.5,0c-1.5-6.7,6-2.2,6.7-6c1.5-3.7,3-6.7,4.5-9.7c0,0,0-0.7,0.7-0.7
			s1.5-0.7,2.2-0.7c1.5,0,0.7,1.5,0.7,2.2c0,4.5,0,9-0.7,14.2c0,2.2-1.5,4.5,1.5,6c3,1.5,3.7-0.7,5.2-3c0.7-1.5,0.7-3,3-1.5
			c0.7,0.7,1.5,0,0.7-0.7c-3-5.2,1.5-11.2-1.5-17.2c-0.7-2.2-0.7-5.2,1.5-7.5c2.2-2.2,3.7,0.7,5.2,1.5c0.7,0,1.5,0,3.7,0
			c-3-1.5-5.2-2.2-5.2-4.5c0-1.5,1.5-2.2,3-2.2c2.2-0.7,4.5,0,6.7-1.5c0-2.2-1.5-1.5-2.2-2.2c-5.2-3-6-9.7-1.5-13.5
			c2.2-1.5,1.5-5.2,5.2-6c3.7-0.7,7.5-2.2,11.2,0.7c1.5,1.5,3.7,2.2,5.2,2.2c8.2,0,13.5,5.2,20.2,9c6,3.7,13.5,6.7,21.7,7.5
			c4.5,0,4.5,5.2,6,8.2c2.2,3,3.7,6-0.7,9c-3,2.2-2.2,4.5,0,6.7c6.7,5.2,8.2,12,6,20.2c-0.7,2.2-0.7,4.5,0.7,6.7
			c2.2,3.7,0.7,7.5-2.2,9c-4.5,1.5-4.5,4.5-4.5,7.5c0,6-3.7,9-8.2,12c-5.2,2.2-6.7,8.2-6,15c0.7,6,6,6.7,10.5,6.7
			c3.7,0,5.2-5.2,8.2-7.5c1.5-0.7,1.5-3,2.2-4.5c2.2-9,10.5-12.7,17.2-16.5c3.7-2.2,7.5-0.7,9.7,2.2c3,3.7,6.7,7.5,6.7,12
			c1.5,9.7,6,18,7.5,27.7c0.7,5.2,3,9.7,6,14.2v6c-1.5,4.5,0,9.7-0.7,15c-0.7,3-0.7,7.5-6,3.7c-2.2-1.5-5.2-0.7-6,1.5
			c-0.7,3.7-3.7,6.7-3,10.5c0,2.2,0,4.5-2.2,5.2c-6.7,3-9,8.2-8.2,15.7c0,0.7-0.7,2.2-1.5,3c-0.7,6-7.5,9-8.2,15H529V224z"/>
	</g>
</g>
<g class="st2">
	<path class="st3" d="M48.8,65.4c0-3-1.5-4.5-4.5-4.5H21.8c-3,0-4.5,1.5-4.5,4.5v52.4c0,3,1.5,4.5,4.5,4.5h22.4c3,0,4.5-1.5,4.5-4.5
		v-14.2h-18V86.3h37.4v35.2c0,11.2-7.5,19.5-19.5,19.5H17.4c-12,0-19.5-8.2-19.5-19.5V61.6c0-11.2,7.5-19.5,19.5-19.5h32.2
		c11.2,0,19.5,7.5,19.5,19.5v12.7H48.8V65.4z"/>
	<path class="st3" d="M48.8,104.8c0-3-1.5-4.5-4.5-4.5H21.8c-3,0-4.5,1.5-4.5,4.5v52.4c0,3,1.5,4.5,4.5,4.5h22.4
		c3,0,4.5-1.5,4.5-4.5V143h-18v-17.2h37.4V161c0,11.2-7.5,19.5-19.5,19.5H17.4c-12,0-19.5-8.2-19.5-19.5v-59.9
		c0-11.2,7.5-19.5,19.5-19.5h32.2c11.2,0,19.5,7.5,19.5,19.5v12.7H48.8V104.8z"/>
</g>
<g class="st2">
	<path class="st3" d="M1215.7,65.6c0-3-1.5-4.5-4.5-4.5h-19.5c-3,0-4.5,1.5-4.5,4.5v9c0,3,1.5,3.7,4.5,4.5l24.7,5.2
		c10.5,2.2,19.5,9,19.5,19.5v18c0,11.2-7.5,19.5-19.5,19.5h-29.9c-11.2,0-19.5-7.5-19.5-19.5V109h18.7v9c0,3,1.5,4.5,4.5,4.5h21
		c3,0,4.5-1.5,4.5-4.5v-10.5c0-3-1.5-3.7-4.5-4.5l-24.7-5.2c-10.5-2.2-19.5-9-19.5-19.5V61.9c0-11.2,7.5-19.5,19.5-19.5h28.4
		c11.2,0,19.5,7.5,19.5,19.5v11.2h-18.7V65.6z"/>
	<path class="st3" d="M1215.7,104.8c0-3-1.5-4.5-4.5-4.5h-19.5c-3,0-4.5,1.5-4.5,4.5v9c0,3,1.5,3.7,4.5,4.5l24.7,5.2
		c10.5,2.2,19.5,9,19.5,19.5v18c0,11.2-7.5,19.5-19.5,19.5h-29.9c-11.2,0-19.5-7.5-19.5-19.5v-12.7h18.7v9c0,3,1.5,4.5,4.5,4.5h21
		c3,0,4.5-1.5,4.5-4.5v-10.5c0-3-1.5-3.7-4.5-4.5l-24.7-5.2c-10.5-2.2-19.5-9-19.5-19.5v-16.5c0-11.2,7.5-19.5,19.5-19.5h28.4
		c11.2,0,19.5,7.5,19.5,19.5v11.2h-18.7V104.8z"/>
</g>
</svg>
