<?xml version="1.0" encoding="utf-8"?>
<!-- Generator: Adobe Illustrator 19.2.1, SVG Export Plug-In . SVG Version: 6.00 Build 0)  -->
<svg version="1.1" id="Layer_1" xmlns="http://www.w3.org/2000/svg" xmlns:xlink="http://www.w3.org/1999/xlink" x="0px" y="0px"
	 viewBox="0 0 706 140" style="enable-background:new 0 0 706 140;" xml:space="preserve">
<style type="text/css">
	.st0{fill:#172E3D;}
	.st1{fill:#355847;}
</style>
<g>
	<g>
		<path class="st0" d="M31.7,53.3c0-1.9-0.9-2.8-2.8-2.8h-14c-1.9,0-2.8,0.9-2.8,2.8v32.6c0,1.9,0.9,2.8,2.8,2.8h14
			c1.9,0,2.8-0.9,2.8-2.8v-8.9H20.5V66.4h23.3v21.9c0,7-4.7,12.1-12.1,12.1H12.1C4.7,100.4,0,95.3,0,88.3V51c0-7,4.7-12.1,12.1-12.1
			h20c7,0,12.1,4.7,12.1,12.1v7.9H31.7V53.3z"/>
		<path class="st0" d="M93.7,99.9l-9.8-22.4h-9.8v22.4H62V39.3h30.8c7,0,12.1,4.7,12.1,12.1v14c0,5.6-3.3,9.8-8.4,11.2l10.3,22.8
			h-13C93.7,99.5,93.7,99.9,93.7,99.9z M92.7,53.8c0-1.9-0.9-2.8-2.8-2.8H74.1v15.4h15.8c1.9,0,2.8-0.9,2.8-2.8V53.8z"/>
		<path class="st0" d="M162.6,39.3V51h-27.5v12.6h22.4v11.2h-22.4v14h27.5v11.2H123V39.3H162.6z"/>
		<path class="st0" d="M187.3,99.9h-12.6l19.6-60.6h14l19.6,60.6h-13l-3.7-13.5h-19.6L187.3,99.9z M194.8,74.8h13l-6.5-22.4
			L194.8,74.8z"/>
		<path class="st0" d="M260.5,50.5v49.4h-12.1V50.5h-15.8V39.3h43.8v11.2H260.5z"/>
	</g>
	<g>
		<path class="st0" d="M443.2,39.3v48.9h25.2v11.2h-37.3V38.9h12.1V39.3z"/>
		<path class="st0" d="M491.7,99.9h-12.6l19.6-60.6h14l19.6,60.6h-13l-3.7-13.5h-19.6L491.7,99.9z M498.6,74.8h13l-6.5-22.4
			L498.6,74.8z"/>
		<path class="st0" d="M558.8,84.5v15.4h-12.1V39.3h12.1v28.4l21-28.4h14l-18.6,23.8l19.6,36.8h-13.5l-14-26.1L558.8,84.5z"/>
		<path class="st0" d="M648.7,39.3V51h-27.5v12.6h22.4v11.2h-22.4v14h27.5v11.2h-39.6V39.3H648.7z"/>
		<path class="st0" d="M693.4,53.3c0-1.9-0.9-2.8-2.8-2.8h-12.1c-1.9,0-2.8,0.9-2.8,2.8v5.6c0,1.9,0.9,2.3,2.8,2.8l15.4,3.3
			c6.5,1.4,12.1,5.6,12.1,12.1v11.2c0,7-4.7,12.1-12.1,12.1h-18.6c-7,0-12.1-4.7-12.1-12.1v-7.9h11.6v5.6c0,1.9,0.9,2.8,2.8,2.8h13
			c1.9,0,2.8-0.9,2.8-2.8v-6.5c0-1.9-0.9-2.3-2.8-2.8l-15.4-3.3c-6.5-1.4-12.1-5.6-12.1-12.1V51c0-7,4.7-12.1,12.1-12.1H693
			c7,0,12.1,4.7,12.1,12.1v7h-11.6V53.3z"/>
	</g>
	<g id="mitten_1_">
		<path class="st1" d="M298.2,139.5c0-1.9,0.5-3.3,1.4-4.7c4.2-5.1,4.7-11.2,5.6-17.2c1.4-7.9,0.5-15.4-3.3-22.4
			c-1.9-4.2-3.3-8.9-5.6-12.6c-1.4-1.9-1.4-3.7,0-5.6c2.3-2.8,1.9-6.1,0.5-8.9c-1.4-2.3-0.9-4.2,0.5-6.5c3.3-5.1,5.6-11.2,4.2-17.7
			c-0.5-1.9,0.5-3.7,1.4-4.2c2.8-0.9,2.3-2.8,2.3-4.7c0-1.4,0-2.8,1.9-1.4c0.5,0,0.9,0.5,0.9,0c-0.9-4.2,3.7-1.4,4.2-3.7
			c0.9-2.3,1.9-4.2,2.8-6.1c0,0,0-0.5,0.5-0.5c0.5,0,0.9-0.5,1.4-0.5c0.9,0,0.5,0.9,0.5,1.4c0,2.8,0,5.6-0.5,8.9
			c0,1.4-0.9,2.8,0.9,3.7c1.9,0.9,2.3-0.5,3.3-1.9c0.5-0.9,0.5-1.9,1.9-0.9c0.5,0.5,0.9,0,0.5-0.5c-1.9-3.3,0.9-7-0.9-10.7
			c-0.5-1.4-0.5-3.3,0.9-4.7c1.4-1.4,2.3,0.5,3.3,0.9c0.5,0,0.9,0,2.3,0c-1.9-0.9-3.3-1.4-3.3-2.8c0-0.9,0.9-1.4,1.9-1.4
			c1.4-0.5,2.8,0,4.2-0.9c0-1.4-0.9-0.9-1.4-1.4c-3.3-1.9-3.7-6.1-0.9-8.4c1.4-0.9,0.9-3.3,3.3-3.7s4.7-1.4,7,0.5
			c0.9,0.9,2.3,1.4,3.3,1.4c5.1,0,8.4,3.3,12.6,5.6c3.7,2.3,8.4,4.2,13.5,4.7c2.8,0,2.8,3.3,3.7,5.1c1.4,1.9,2.3,3.7-0.5,5.6
			c-1.9,1.4-1.4,2.8,0,4.2c4.2,3.3,5.1,7.5,3.7,12.6c-0.5,1.4-0.5,2.8,0.5,4.2c1.4,2.3,0.5,4.7-1.4,5.6c-2.8,0.9-2.8,2.8-2.8,4.7
			c0,3.7-2.3,5.6-5.1,7.5c-3.3,1.4-4.2,5.1-3.7,9.3c0.5,3.7,3.7,4.2,6.5,4.2c2.3,0,3.3-3.3,5.1-4.7c0.9-0.5,0.9-1.9,1.4-2.8
			c1.4-5.6,6.5-7.9,10.7-10.3c2.3-1.4,4.7-0.5,6.1,1.4c1.9,2.3,4.2,4.7,4.2,7.5c0.9,6.1,3.7,11.2,4.7,17.2c0.5,3.3,1.9,6.1,3.7,8.9
			v3.7c-0.9,2.8,0,6.1-0.5,9.3c-0.5,1.9-0.5,4.7-3.7,2.3c-1.4-0.9-3.3-0.5-3.7,0.9c-0.5,2.3-2.3,4.2-1.9,6.5c0,1.4,0,2.8-1.4,3.3
			c-4.2,1.9-5.6,5.1-5.1,9.8c0,0.5-0.5,1.4-0.9,1.9c-0.5,3.7-4.7,5.6-5.1,9.3h-85.3V139.5z"/>
	</g>
</g>
</svg>
