<?xml version="1.0" encoding="utf-8"?>
<!-- Generator: Adobe Illustrator 19.2.1, SVG Export Plug-In . SVG Version: 6.00 Build 0)  -->
<svg version="1.1" id="Layer_1" xmlns="http://www.w3.org/2000/svg" xmlns:xlink="http://www.w3.org/1999/xlink" x="0px" y="0px"
	 viewBox="0 0 288.5 147" style="enable-background:new 0 0 288.5 147;" xml:space="preserve">
<style type="text/css">
	.st0{clip-path:url(#SVGID_2_);}
	.st1{clip-path:url(#SVGID_4_);fill:#69020B;}
</style>
<g id="Artwork_15">
	<g>
		<defs>
			<rect id="SVGID_1_" y="0" width="288.5" height="147"/>
		</defs>
		<clipPath id="SVGID_2_">
			<use xlink:href="#SVGID_1_"  style="overflow:visible;"/>
		</clipPath>
		<g class="st0">
			<defs>
				<rect id="SVGID_3_" y="0" width="288.5" height="147"/>
			</defs>
			<clipPath id="SVGID_4_">
				<use xlink:href="#SVGID_3_"  style="overflow:visible;"/>
			</clipPath>
			<path class="st1" d="M117,1.9c1.9,1,0,3.8-2.9,4.8C99.8,12.5,93,24,87.3,36.4c0,1.9-1,3.8,1,6.7c4.8-10.6,13.4-7.7,22.1-6.7
				c12.5,1.9,17.3,11.5,23,20.1c3.8,4.8,6.7,5.8,11.5,3.8c3.8-1,6.7-3.8,9.6,1c1,1,1.9,1,3.8,0c1,0,1.9-1.9,1.9-1
				c9.6,4.8,13.4-4.8,18.2-8.6c7.7-4.8,15.3-6.7,24-6.7c7.7,0,15.3-1,22.1-4.8c1-1,2.9-1,3.8-1c7.7-1,8.6-1,7.7,6.7
				c-1,9.6,3.8,13.4,13.4,9.6c1.9-1,4.8-1.9,6.7,0c1.9,1.9,3.8,1,5.8-1c2.9-2.9,6.7-3.8,9.6-4.8c2.9-1,6.7,0,4.8,3.8
				c-1,1.9,0,3.8,0,5.8c1.9,3.8,1.9,7.7-1.9,10.6c6.7,1,7.7,7.7,13.4,10.6c1.9,1,0,2.9-1.9,2.9h-11.5c-1.9,0-3.8-1-5.8,1.9
				c-1,1.9-1.9,1-2.9,0c-2.9-2.9-6.7-3.8-9.6-1.9c-2.9,1-2.9,4.8-1.9,7.7c0,1,1,2.9-1,2.9c-1,1-2.9,0-3.8-1
				c-1.9-1.9-3.8-2.9-5.8-4.8c-5.8-6.7-14.4-6.7-22.1-7.7c-1.9,0-4.8,0-4.8,1.9c-2.9,6.7-9.6,6.7-15.3,7.7c-3.8,1-8.6-1-13.4,1
				c-1.9,1-4.8,1-4.8,2.9c-1,8.6-10.6,9.6-13.4,16.3c0,1-1,1.9-2.9,1c-1-1-1.9-1.9-1-3.8c1.9-3.8,5.8-5.8,5.8-11.5
				c-4.8,2.9-10.6,1.9-12.5,8.6c0,1.9-1.9,2.9-4.8,2.9c-2.9-1-2.9-2.9-1.9-4.8v-5.8c-1.9,9.6-9.6,14.4-12.5,23
				c-2.9,8.6-6.7,16.3-12.5,24c-1,1.9-1.9,3.8-4.8,2.9c-2.9-1-3.8-2.9-3.8-5.8c0-1.9,1-3.8,1.9-4.8c1-2.9,1-4.8-3.8-3.8
				c-3.8,1-5.8-1.9-3.8-4.8c2.9-5.8-1-10.6,0-16.3c0-2.9-2.9-3.8-5.8-3.8c-4.8,0-7.7-1.9-6.7-7.7c1-4.8-1.9-6.7-6.7-6.7
				c-7.7,1-15.3,0-23-1c-5.8-1-10.5-4.8-16.3-6.7c-12.5-4.8-24.9-8.6-37.4-11.5c-3.8-1-5.8-1.9-5.8-6.7c1-3.8-1.9-5.8-4.8-6.7
				c-1.9-1-4.8-1.9-6.7-2.9v-2.9c1.9-1.9,4.8-2.9,7.7-3.8c6.7-1,11.5-2.9,16.3-7.7c3.8-3.8,8.6-4.8,13.4-3.8c3.8,0,8.6,1,11.5-1.9
				c6.7-5.8,16.3-6.7,20.1-15.3c0-1,1.9-1,2.9-1.9C81.5,13.4,93,1.9,101.7,0C110.3,0,116.1,1,117,1.9"/>
		</g>
	</g>
</g>
</svg>
